<svg xmlns="http://www.w3.org/2000/svg" xmlns:xlink="http://www.w3.org/1999/xlink" width="72px"
  height="15px" viewBox="0 0 72 15" version="1.1">
  <title>Ruckus Labs</title>
  <g id="Page-1" stroke="none" stroke-width="1" fill="none" fill-rule="evenodd">
    <g fill="#fff" id="Combined-Shape">
      <path
        d="M19.2767948,0.0152362937 C19.4466401,0.0152362937 19.5774109,0.15828727 19.5541229,0.319159412 C19.332913,1.84577044 18.3398154,8.70073487 17.9867952,11.1529256 L17.9284496,11.5587406 C17.9200904,11.6169854 17.9124424,11.6703366 17.9055488,11.7184973 C17.8827087,11.8781385 18.0124718,12.0199586 18.1810296,12.0198516 L20.5383187,12.0191024 L20.5383187,12.0191024 C20.6783823,12.0190488 20.7964455,11.92031 20.8149751,11.7875878 C20.8629807,11.4440085 21.2129121,9.00774056 21.578699,6.46157061 L21.6703104,5.82388595 C22.0672902,3.06060855 22.4549002,0.362267366 22.4694272,0.249801363 C22.4867812,0.115687728 22.605908,0.0152362937 22.7472032,0.0152362937 L25.6461052,0.0152362937 C25.8162304,0.0152362937 25.9470011,0.159143542 25.9232654,0.320176235 L23.826902,14.5395396 C23.7879954,14.8036461 23.5515892,15 23.2725816,15 L14.6058814,15 C14.2663027,15 14.0049291,14.7132558 14.0513371,14.3916721 L16.093847,0.246215723 C16.1129364,0.113868149 16.2313355,0.0152362937 16.3711192,0.0152362937 L19.2767948,0.0152362937 Z M54.4707879,0.0152362937 C54.6406332,0.0152362937 54.771404,0.15828727 54.748116,0.319159412 C54.5269061,1.84577044 53.5338085,8.70073487 53.1807883,11.1529256 L53.1224427,11.5587406 C53.1140835,11.6169854 53.1064355,11.6703366 53.0995419,11.7184973 C53.0767018,11.8781385 53.2064649,12.0199586 53.3750227,12.0198516 L55.7323118,12.0191024 L55.7323118,12.0191024 C55.8723754,12.0190488 55.9904386,11.92031 56.0089682,11.7875878 C56.0569738,11.4440085 56.4069052,9.00774056 56.7726921,6.46157061 L56.8643035,5.82388595 C57.2612833,3.06060855 57.6488933,0.362267366 57.6634203,0.249801363 C57.6807743,0.115687728 57.7999011,0.0152362937 57.9411963,0.0152362937 L60.8400983,0.0152362937 C61.0102234,0.0152362937 61.1409942,0.159143542 61.1172585,0.320176235 L59.0208951,14.5395396 C58.9819885,14.8036461 58.7455823,15 58.4665747,15 L49.7998745,15 C49.4602958,15 49.1989222,14.7132558 49.2453302,14.3916721 L51.2878401,0.246215723 C51.3069295,0.113868149 51.4253286,0.0152362937 51.5651123,0.0152362937 L54.4707879,0.0152362937 Z M41.5605529,0 C41.9003554,0 42.1618411,0.287065259 42.1150412,0.60886306 L41.3931148,5.54430905 C41.3696029,5.70523471 41.5003177,5.84892789 41.670331,5.84892789 L42.0401391,5.84892789 C42.1362579,5.84892789 42.225715,5.80172589 42.2769373,5.72396567 L45.8745897,0.265123284 C45.9770903,0.109602843 46.1559484,0.0152523488 46.348242,0.0152523488 L48.8209073,0.0152523488 C49.2637702,0.0152523488 49.5314696,0.483365664 49.2919844,0.839521387 C48.280526,2.34388463 46.1374748,5.52937781 45.0311292,7.15864976 C44.8737676,7.39043194 44.8657064,7.57699225 44.9661357,7.82306348 C45.6431657,9.48128813 46.9855257,12.8029821 47.5788646,14.2722382 C47.7204956,14.6228281 47.4497172,14.999909 47.0565651,14.999909 L44.3827614,14.999909 C44.1499938,14.999909 43.9415779,14.8622633 43.8591744,14.6541891 L41.7412584,9.30420034 C41.7001127,9.20010975 41.5958767,9.13128687 41.4794929,9.13128687 L41.0981527,9.13128687 C40.9579772,9.13128687 40.8394102,9.23045389 40.8207126,9.36328312 L40.0948675,14.5338829 C40.0574725,14.8004511 39.8188829,14.9990527 39.5375802,14.9978219 L37.1097554,14.9874931 C36.7710165,14.9860481 36.5112103,14.6995715 36.5577302,14.3787906 L38.5768962,0.461637756 C38.615299,0.197049643 38.8519292,0 39.1313846,0 L41.5605529,0 Z M3.99266678,0.0153807896 C4.16340776,0.0153807896 4.29440248,0.160251344 4.26965903,0.32176569 L3.44215307,5.72120419 C3.39266617,6.04423288 3.65459963,6.33397399 3.9960816,6.33397399 L5.58246124,6.33397399 C5.75863234,6.33397399 5.89102658,6.48767485 5.85715829,6.65298891 L4.19738801,14.7559999 C4.12662847,15.1015057 3.59957066,15.0712151 3.57264396,14.7200364 L3.09367353,8.46534256 C3.08298122,8.32555612 2.96122331,8.21734472 2.81460999,8.2172912 L0.559653446,8.2163279 C0.220074826,8.21622086 -0.0411868654,7.92936967 0.00538903502,7.60778594 L1.07131658,0.246253185 C1.09051794,0.113905611 1.20880506,0.0153807896 1.34858874,0.0153807896 L3.99266678,0.0153807896 Z M71.4401014,0.0152362937 C71.779848,0.0152362937 72.0412776,0.302248036 71.9945897,0.623992319 L71.5816765,3.46890323 C71.5537421,3.66129689 71.4189407,3.82409564 71.2295022,3.89430996 L68.7763742,4.80361754 C68.3782958,4.95121746 67.960904,4.63546708 68.0195158,4.23114605 L68.1727908,3.17413152 C68.1961347,3.01331289 68.0654199,2.86983378 67.8955186,2.86983378 L66.0903666,2.86983378 C65.9506949,2.86983378 65.8323518,2.96830508 65.8131504,3.10065266 L65.516453,5.14516311 C65.4769866,5.41713658 65.6592037,5.67353659 65.9382112,5.73861327 L70.6029108,6.82672119 C70.8819184,6.89179788 71.0641354,7.14819789 71.024725,7.42011783 L69.9923299,14.5380411 C69.9539271,14.8026828 69.7172969,14.9997859 69.4378415,14.9997859 L61.2914814,14.9997859 C60.951343,14.9997859 60.6898014,14.712132 60.737161,14.3901201 L61.1910521,11.3039545 C61.2207779,11.1017672 61.3682869,10.9333492 61.5712727,10.8698245 L63.9821354,10.1156092 C64.3754554,9.99257362 64.7675999,10.3059157 64.7107795,10.6977673 L64.5632145,11.7147511 C64.5398706,11.8756233 64.6705854,12.0191024 64.8404307,12.0191024 L66.6458626,12.0191024 C66.7855903,12.0191024 66.9039334,11.9206311 66.9231348,11.7882835 L67.2051653,9.84406391 C67.2444077,9.57380299 67.0646538,9.31863387 66.7879975,9.25173761 L62.1470337,8.12911122 C61.8703773,8.06221496 61.6906235,7.80699232 61.7298659,7.5367314 L62.7544797,0.47687405 C62.7928824,0.212285936 63.0295127,0.0152362937 63.3089681,0.0152362937 L71.4401014,0.0152362937 Z M31.6272889,0.0110607457 L33.3024801,0.0119879081 C33.4128112,0.0120636664 33.5224152,0.0121414246 33.6310177,0.0122207091 L34.5739874,0.0129626868 C34.6741103,0.0130468651 34.7724084,0.0131311484 34.868607,0.0132150631 L35.6703006,0.0139475505 C35.7514327,0.0140249896 35.829642,0.0141006389 35.9046541,0.0141740246 L36.314164,0.0145833861 L36.314164,0.0145833861 C36.6536866,0.0149044882 36.9144445,0.301755679 36.8677566,0.623285895 L36.4017177,3.83387855 C36.3759106,4.01166207 36.2585752,4.16520238 36.0893457,4.24285557 L33.5436816,5.41011514 C33.1388856,5.59630083 32.6810758,5.27391434 32.7472449,4.84920333 C32.8462747,4.2140099 32.9613709,3.4584567 32.9953512,3.16689602 C33.0138248,3.00837862 32.8840057,2.86982308 32.7171274,2.86982308 L30.5837608,2.86982308 C30.4440331,2.86982308 30.32569,2.9683479 30.3064886,3.10064195 L29.0565527,11.7146334 C29.0332088,11.8755055 29.1639236,12.0189846 29.3338248,12.0189846 L31.4502293,12.0189846 C31.5900689,12.0189846 31.708468,11.9205668 31.7275014,11.7881122 C31.7702707,11.4911998 31.9018252,10.5859596 31.9994554,9.91421401 C32.0540366,9.53916678 32.4875507,9.33553455 32.8314958,9.52327223 L35.0339425,10.7254249 C35.232226,10.8336898 35.3418921,11.0461524 35.3110467,11.2624681 L34.8479188,14.5111114 C34.8101319,14.7762882 34.5732218,14.9740335 34.2932625,14.9740335 L26.0908098,14.9740335 C25.7509513,14.9740335 25.4895217,14.6869148 25.5363215,14.365117 L27.557055,0.474508598 C27.5954018,0.210883791 27.8302966,0.014315801 28.1086883,0.0130849097 C28.2253296,0.0125711464 28.3823598,0.0121563896 28.5723685,0.0118278486 L29.2339195,0.0110880829 C29.3167713,0.011031783 29.4024639,0.0109836415 29.490723,0.0109431846 L31.2972773,0.0109425781 C31.406453,0.0109772829 31.5165483,0.01101683 31.6272889,0.0110607457 Z M6.19540457,0.0153647345 L13.7219469,0.0196996126 C14.0556476,0.0198601636 14.3150619,0.297024775 14.2780027,0.614059562 C14.1377712,1.81257307 13.4946655,6.69958617 13.3858951,7.51058299 C13.3014203,8.14079934 13.082424,8.61656558 12.7187177,8.93911262 C12.3550674,9.26171318 11.8467071,9.43109453 11.1835044,9.44875514 C11.1831125,9.44875514 11.1827206,9.44875514 11.1822728,9.44875514 L11.1393841,9.45639222 C11.0729628,9.4795854 11.0343439,9.55158808 11.0610747,9.61968848 C11.3606831,10.3817707 12.6010464,13.5357959 13.0261074,14.5833379 C13.0972588,14.7587132 12.9618417,14.9474142 12.7651257,14.9474677 L12.7651257,14.9474677 L10.1859292,14.9478958 C10.0789502,14.9475747 9.98148786,14.8889736 9.93485597,14.7969243 L9.93485597,14.7969243 L7.58142947,9.71612614 C7.53933202,9.62536128 7.52455313,9.52517744 7.53866025,9.42675965 L7.53866025,9.42675965 L7.90527753,6.87035896 C7.92246359,6.75893654 7.98073944,6.66185668 8.06415061,6.59233808 C8.1475058,6.52281948 8.25610826,6.48091565 8.37389154,6.47995235 L8.37389154,6.47995235 L8.48281332,6.47983052 C8.5086445,6.47986779 8.53794164,6.47993144 8.57014553,6.48001785 L8.79377607,6.48078043 C8.87696407,6.48110636 8.96730531,6.48149437 9.06032606,6.48191551 L9.34295305,6.48324937 C9.43685906,6.48370783 9.52897082,6.48417046 9.6148146,6.48460833 C9.89320637,6.48605329 10.1301165,6.2916795 10.1707584,6.02837579 C10.2767858,5.34127086 10.4731099,4.06339162 10.5576407,3.47775494 C10.6040487,3.15617121 10.342619,2.86980167 10.0030404,2.86980167 L10.0030404,2.86980167 L5.8675259,2.86980167 C5.69796052,2.86980167 5.56730168,2.72680421 5.59019777,2.56619965 L5.59019777,2.56619965 L5.91997977,0.246932851 C5.93873329,0.114959896 6.05612471,0.0162745237 6.19540457,0.0153647345 L6.19540457,0.0153647345 Z" />
    </g>
  </g>
</svg>