<?xml version="1.0" encoding="UTF-8"?>
<svg width="500px" height="500px" viewBox="0 0 500 500" version="1.1" xmlns="http://www.w3.org/2000/svg" xmlns:xlink="http://www.w3.org/1999/xlink">
    <title>Artboard</title>
    <g id="Artboard" stroke="none" stroke-width="1" fill="none" fill-rule="evenodd">
        <path d="M80.7623838,-3.26289697e-15 L419.237616,3.26289697e-15 C447.320457,-1.8958371e-15 457.503973,2.92400675 467.77064,8.41468017 C478.037306,13.9053536 486.094646,21.9626937 491.58532,32.2293603 C497.075993,42.496027 500,52.6795435 500,80.7623838 L500,419.237616 C500,447.320457 497.075993,457.503973 491.58532,467.77064 C486.094646,478.037306 478.037306,486.094646 467.77064,491.58532 C457.503973,497.075993 447.320457,500 419.237616,500 L80.7623838,500 C52.6795435,500 42.496027,497.075993 32.2293603,491.58532 C21.9626937,486.094646 13.9053536,478.037306 8.41468017,467.77064 C2.92400675,457.503973 1.2638914e-15,447.320457 -2.17526465e-15,419.237616 L2.17526465e-15,80.7623838 C-1.2638914e-15,52.6795435 2.92400675,42.496027 8.41468017,32.2293603 C13.9053536,21.9626937 21.9626937,13.9053536 32.2293603,8.41468017 C42.496027,2.92400675 52.6795435,1.8958371e-15 80.7623838,-3.26289697e-15 Z" id="background" fill="#EE3F3A"></path>
        <path d="M345.898305,90 C348.927966,90 351.40678,92.4827586 351.40678,95.5172414 L351.40678,238.965517 L367.932203,238.965517 C377.021501,238.965517 384.457627,246.413478 384.457627,255.517241 C384.457627,264.621005 377.021501,272.068966 367.932203,272.068966 L367.932203,371.37931 C367.932203,382.175316 363.486385,391.950999 356.332183,398.966159 L373.440678,398.965517 C376.470339,398.965517 378.949153,401.448276 378.949153,404.482759 C378.949153,407.517241 376.470339,410 373.440678,410 L92.5084746,410 C89.4788136,410 87,407.517241 87,404.482759 C87,401.448276 89.4788136,398.965517 92.5084746,398.965517 L148.176291,398.966159 C141.022089,391.950999 136.576271,382.175316 136.576271,371.37931 L136.576271,272.068966 C127.486973,272.068966 120.050847,264.621005 120.050847,255.517241 C120.050847,246.413478 127.486973,238.965517 136.576271,238.965517 L158.610169,238.965517 L158.609122,151.005776 C158.570835,150.21483 158.701552,149.409299 158.996266,148.647771 L181.030165,93.4753576 C181.856436,91.3793103 183.895075,90 186.152542,90 C188.41001,90 190.448649,91.3793103 191.27492,93.4753576 L213.308818,148.647771 C213.603533,149.409299 213.734244,150.21483 213.695955,151.005776 L213.694915,238.965517 L224.711676,238.965643 L224.711676,161.724264 C224.711676,154.440875 227.576586,147.490412 232.752789,142.248717 C238.042373,137.007338 244.982232,134.138057 252.254048,134.138057 C267.456179,134.138057 279.796421,146.497939 279.796421,161.724264 L279.796421,238.965643 L290.813559,238.965517 L290.813559,95.5172414 C290.813559,92.4827586 293.292373,90 296.322034,90 L345.898305,90 Z M406.491525,398.965517 C409.521186,398.965517 412,401.448276 412,404.482759 C412,407.517241 409.521186,410 406.491525,410 L389.966102,410 C386.936441,410 384.457627,407.517241 384.457627,404.482759 C384.457627,401.448276 386.936441,398.965517 389.966102,398.965517 L406.491525,398.965517 Z M356.915254,272.068966 L147.59322,272.068966 L147.59322,371.37931 C147.59322,386.605635 159.933462,398.965517 175.135593,398.965517 L329.372881,398.965517 C344.575012,398.965517 356.915254,386.605635 356.915254,371.37931 L356.915254,272.068966 Z M230.220339,283.103448 C233.25,283.103448 235.728814,285.586207 235.728814,288.62069 C235.728814,291.655172 233.25,294.137931 230.220339,294.137931 L164.118644,294.137931 C161.088983,294.137931 158.610169,291.655172 158.610169,288.62069 C158.610169,285.586207 161.088983,283.103448 164.118644,283.103448 L230.220339,283.103448 Z M274.288136,283.103448 C277.317797,283.103448 279.79661,285.586207 279.79661,288.62069 C279.79661,291.655172 277.317797,294.137931 274.288136,294.137931 L252.254237,294.137931 C249.224576,294.137931 246.745763,291.655172 246.745763,288.62069 C246.745763,285.586207 249.224576,283.103448 252.254237,283.103448 L274.288136,283.103448 Z M367.932203,250 L136.576271,250 C133.54661,250 131.067797,252.482759 131.067797,255.517241 C131.067797,258.551724 133.54661,261.034483 136.576271,261.034483 L367.932203,261.034483 C370.961864,261.034483 373.440678,258.551724 373.440678,255.517241 C373.440678,252.482759 370.961864,250 367.932203,250 Z M340.389,112.068 L340.389831,101.034483 L301.830508,101.034483 L301.830508,238.965517 L340.389831,238.965517 L340.389,211.379 L323.864407,211.37931 C320.834746,211.37931 318.355932,208.896552 318.355932,205.862069 C318.355932,202.827586 320.834746,200.344828 323.864407,200.344828 L340.389,200.344 L340.389,189.31 L323.864407,189.310345 C320.834746,189.310345 318.355932,186.827586 318.355932,183.793103 C318.355932,180.758621 320.834746,178.275862 323.864407,178.275862 L340.389,178.275 L340.389,167.241 L323.864407,167.241379 C320.834746,167.241379 318.355932,164.758621 318.355932,161.724138 C318.355932,158.689655 320.834746,156.206897 323.864407,156.206897 L340.389,156.206 L340.389,145.172 L323.864407,145.172414 C320.834746,145.172414 318.355932,142.689655 318.355932,139.655172 C318.355932,136.62069 320.834746,134.137931 323.864407,134.137931 L340.389,134.137 L340.389,123.103 L323.864407,123.103448 C320.834746,123.103448 318.355932,120.62069 318.355932,117.586207 C318.355932,114.551724 320.834746,112.068966 323.864407,112.068966 L340.389,112.068 Z M202.677966,156.206897 L169.627119,156.206897 L169.627119,238.965517 L180.644068,238.965517 L180.644068,167.241379 C180.644068,164.206897 183.122881,161.724138 186.152542,161.724138 C189.182203,161.724138 191.661017,164.206897 191.661017,167.241379 L191.661017,238.965517 L202.677966,238.965517 L202.677966,156.206897 Z M268.779,222.413 L235.728,222.413 L235.728625,238.965643 L268.779661,238.965517 L268.779,222.413 Z M268.779,189.31 L235.728,189.31 L235.728,211.379 L268.779,211.379 L268.779,189.31 Z M252.254237,145.172414 C247.847458,145.172414 243.716416,146.88175 240.521501,150.027082 C237.435308,153.172414 235.728625,157.364698 235.728625,161.724264 L235.728,178.275 L268.779,178.275 L268.779661,161.724138 C268.779661,152.620374 261.343535,145.172414 252.254237,145.172414 Z M186.152542,110.359567 L172.270557,145.172414 L200.088668,145.172414 L186.152542,110.359567 Z" id="icon" fill="#FFFFFF" fill-rule="nonzero"></path>
    </g>
</svg>